<?xml version="1.0" standalone="no"?>
<!DOCTYPE svg PUBLIC "-//W3C//DTD SVG 20010904//EN"
 "http://www.w3.org/TR/2001/REC-SVG-20010904/DTD/svg10.dtd">
<svg version="1.0" xmlns="http://www.w3.org/2000/svg"
 width="447.000000pt" height="447.000000pt" viewBox="0 0 447.000000 447.000000"
 preserveAspectRatio="xMidYMid meet">
<metadata>
Created by potrace 1.16, written by Peter Selinger 2001-2019
</metadata>
<g transform="translate(0.000000,447.000000) scale(0.100000,-0.100000)"
fill="#000000" stroke="none">
<path d="M2558 3668 c-9 -7 -190 -200 -402 -428 -405 -435 -411 -444 -368
-483 10 -10 32 -17 49 -17 27 0 69 41 390 388 447 482 426 457 426 489 0 47
-59 79 -95 51z"/>
<path d="M3461 3587 c-53 -52 -348 -333 -656 -627 -308 -293 -568 -541 -577
-552 -39 -44 -11 -108 47 -108 22 0 49 20 124 93 53 52 354 340 669 641 314
301 573 555 573 564 3 33 -2 47 -23 65 -36 31 -57 20 -157 -76z"/>
<path d="M2070 2845 c-91 -41 -132 -127 -108 -222 36 -143 226 -186 321 -74
74 89 53 228 -43 284 -43 26 -126 31 -170 12z"/>
<path d="M810 2223 c-18 -24 -20 -35 -14 -97 20 -209 121 -454 282 -681 79
-110 297 -326 409 -405 51 -36 130 -84 175 -107 46 -24 74 -43 63 -43 -34 0
-65 -28 -65 -58 1 -72 2 -72 498 -72 429 0 440 0 466 21 31 25 34 61 6 89 -20
20 -20 20 63 61 147 74 254 154 402 303 100 100 161 171 211 246 129 194 216
390 248 560 23 118 21 162 -7 188 l-23 22 -1346 0 -1347 0 -21 -27z"/>
</g>
</svg>
